<svg width="291" height="203" viewBox="0 0 291 203" fill="none" xmlns="http://www.w3.org/2000/svg">
<path d="M12.3 120L23.4 50.55H37.35L26.4 120C25.1 128.4 26.45 135 30.45 139.8C34.55 144.6 40.8 147 49.2 147C57.5 147 64.2 144.7 69.3 140.1C74.5 135.4 77.8 128.7 79.2 120L90.15 50.55H104.25L93 120.75C91 133.45 86.15 143.3 78.45 150.3C70.85 157.3 60.75 160.8 48.15 160.8C40.15 160.8 33.2 159.1 27.3 155.7C21.5 152.2 17.25 147.4 14.55 141.3C11.85 135.1 11.1 128 12.3 120Z" fill="#0D0D0D"/>
<path d="M152.17 56.0542L219.085 85.1379C219.501 85.3221 219.989 85.4336 220.5 85.4336C221.011 85.4336 221.499 85.327 221.939 85.1331L221.915 85.1428L288.825 56.059C290.116 55.4919 291 54.2073 291 52.7192C291 51.2311 290.116 49.9466 288.849 49.3843L288.825 49.3746L221.915 20.2908C221.499 20.1066 221.011 20 220.5 20C219.989 20 219.501 20.1066 219.061 20.3005L219.085 20.2908L152.17 49.3746C150.884 49.9466 150 51.2263 150 52.7144C150 54.2025 150.884 55.487 152.146 56.0493L152.17 56.0542ZM220.5 27.586L278.315 52.7144L220.5 77.8427L162.685 52.7144L220.5 27.586ZM288.825 88.1529L269.707 79.8447C269.291 79.6605 268.803 79.549 268.292 79.549C266.313 79.549 264.707 81.1777 264.707 83.1845C264.707 84.6774 265.596 85.9571 266.863 86.5194L266.887 86.5291L278.315 91.4927L220.5 116.621L162.685 91.4927L174.113 86.5291C175.404 85.962 176.293 84.6774 176.293 83.1845C176.293 81.1777 174.687 79.549 172.708 79.549C172.197 79.549 171.709 79.6556 171.269 79.8544L171.293 79.8447L152.175 88.1529C150.884 88.7249 150 90.0046 150 91.4976C150 92.9905 150.884 94.2654 152.146 94.8276L152.17 94.8373L219.085 123.921C219.501 124.105 219.989 124.217 220.5 124.217C221.011 124.217 221.499 124.11 221.939 123.916L221.915 123.926L288.825 94.8422C290.116 94.2751 291 92.9905 291 91.5024C291 90.0143 290.116 88.7298 288.849 88.1675L288.825 88.1578V88.1529ZM288.825 126.931L269.707 118.618C269.291 118.434 268.803 118.322 268.292 118.322C266.313 118.322 264.707 119.951 264.707 121.958C264.707 123.451 265.596 124.731 266.863 125.293L266.887 125.303L278.315 130.271L220.5 155.399L162.68 130.271L174.118 125.303C175.404 124.731 176.288 123.451 176.288 121.963C176.288 119.956 174.682 118.327 172.703 118.327C172.192 118.327 171.704 118.434 171.265 118.633L171.289 118.623L152.17 126.936C150.884 127.508 150 128.788 150 130.276C150 131.764 150.884 133.049 152.146 133.611L152.17 133.621L219.085 162.704C219.501 162.888 219.989 163 220.5 163C221.011 163 221.499 162.893 221.939 162.699L221.915 162.709L288.825 133.625C290.116 133.058 291 131.774 291 130.286C291 128.797 290.116 127.513 288.849 126.951L288.825 126.941V126.931Z" fill="url(#paint0_linear_32_2)"/>
<line x1="96.04" y1="20.5003" x2="221.04" y2="22.5003" stroke="url(#paint1_linear_32_2)" stroke-width="5"/>
<rect x="95.1176" y="18.0605" width="13.8867" height="33.3788" transform="rotate(8.65 95.1176 18.0605)" fill="url(#paint2_linear_32_2)"/>
<defs>
<linearGradient id="paint0_linear_32_2" x1="220.5" y1="20" x2="220.5" y2="163" gradientUnits="userSpaceOnUse">
<stop stop-color="#FF0000"/>
<stop offset="1" stop-color="#FF00C8"/>
</linearGradient>
<linearGradient id="paint1_linear_32_2" x1="95.992" y1="23.4999" x2="220.992" y2="25.4999" gradientUnits="userSpaceOnUse">
<stop offset="0.298077" stop-color="#EAEAEA"/>
<stop offset="1" stop-color="#FF0000"/>
</linearGradient>
<linearGradient id="paint2_linear_32_2" x1="102.061" y1="18.0605" x2="102.061" y2="51.4393" gradientUnits="userSpaceOnUse">
<stop offset="0.384615" stop-color="#EAEAEA"/>
<stop offset="1" stop-color="#0D0D0D"/>
</linearGradient>
</defs>
</svg>
