
      <svg data-logo="logo" xmlns="http://www.w3.org/2000/svg" viewBox="0 0 204 43">
        <g id="logogram" transform="translate(0, 1) rotate(0) "><path d="M40.6035 40.89V0.889954H19.0079L0.603525 19.2943L0.603516 40.89H40.6035Z" fill="#2F2722"/><path fill-rule="evenodd" clip-rule="evenodd" d="M19.9139 27.4315L19.9139 39.5106L11.638 39.5106L11.638 24.0035L23.7171 11.9244L39.2242 11.9244L39.2242 20.2003L27.1451 20.2003L19.9139 27.4315Z" fill="#D62727"/><path fill-rule="evenodd" clip-rule="evenodd" d="M10.2587 23.2936L10.2587 39.5106L1.98283 39.5106L1.98283 19.8656L19.5792 2.26926L39.2242 2.26926L39.2242 10.5451L23.0072 10.5451L10.2587 23.2936Z" fill="#FFD43E"/><path fill-rule="evenodd" clip-rule="evenodd" d="M29.569 31.5695L29.569 39.5106L21.2932 39.5106L21.2932 28.1415L27.855 21.5796L39.2242 21.5796L39.2242 29.8555L31.283 29.8555L29.569 31.5695Z" fill="#EA721B"/></g>
        <g id="logotype" transform="translate(47, 8)"><path fill="#000000" d="M19.19 19.21L19.19 2.12L24.18 2.12L24.18 19.21Q24.18 22.08 23.13 23.88Q22.08 25.68 20.24 26.51Q18.39 27.34 16.01 27.34L16.01 27.34Q13.62 27.34 11.76 26.51Q9.90 25.68 8.86 23.88Q7.83 22.08 7.83 19.21L7.83 19.21L7.83 2.12L12.82 2.12L12.82 19.21Q12.82 20.83 13.19 21.70Q13.55 22.57 14.26 22.89Q14.97 23.21 16.01 23.21L16.01 23.21Q17.07 23.21 17.77 22.89Q18.46 22.57 18.83 21.70Q19.19 20.83 19.19 19.21L19.19 19.21ZM30.91 8.51L31.23 12.46L31.23 27L26.43 27L26.43 8.51L30.91 8.51ZM30.51 17.12L30.51 17.12L29.23 17.16Q29.20 15.07 29.63 13.41Q30.07 11.76 30.88 10.59Q31.69 9.41 32.82 8.79Q33.95 8.17 35.37 8.17L35.37 8.17Q36.44 8.17 37.34 8.54Q38.24 8.92 38.89 9.74Q39.54 10.56 39.89 11.91Q40.25 13.26 40.25 15.24L40.25 15.24L40.25 27L35.45 27L35.45 15.21Q35.45 14.01 35.21 13.35Q34.97 12.70 34.50 12.43Q34.03 12.17 33.30 12.17L33.30 12.17Q32.61 12.17 32.08 12.54Q31.55 12.92 31.20 13.59Q30.85 14.27 30.67 15.17Q30.50 16.08 30.51 17.12ZM49.27 27L49.27 27L44.87 27L44.91 22.86L49.27 22.86Q51.08 22.86 52.09 22.21Q53.09 21.57 53.51 20.16Q53.93 18.76 53.93 16.49L53.93 16.49L53.93 12.61Q53.93 10.88 53.71 9.68Q53.49 8.47 52.96 7.73Q52.43 6.99 51.54 6.63Q50.65 6.27 49.33 6.27L49.33 6.27L44.79 6.27L44.79 2.12L49.33 2.12Q51.49 2.12 53.25 2.82Q55.01 3.52 56.27 4.86Q57.54 6.20 58.22 8.17Q58.90 10.13 58.90 12.64L58.90 12.64L58.90 16.49Q58.90 19.02 58.22 20.97Q57.54 22.92 56.28 24.26Q55.02 25.60 53.25 26.30Q51.47 27 49.27 27ZM42.77 2.12L47.78 2.12L47.78 27L42.77 27L42.77 2.12ZM68.53 27.34L68.53 27.34Q66.63 27.34 65.17 26.76Q63.71 26.18 62.70 25.08Q61.70 23.98 61.17 22.40Q60.64 20.83 60.64 18.81L60.64 18.81L60.64 17.29Q60.64 15.04 61.15 13.34Q61.66 11.64 62.60 10.47Q63.54 9.31 64.92 8.74Q66.29 8.17 68.04 8.17L68.04 8.17Q69.78 8.17 71.10 8.74Q72.43 9.31 73.30 10.45Q74.17 11.58 74.62 13.26Q75.06 14.93 75.06 17.16L75.06 17.16L75.06 19.34L62.67 19.34L62.67 15.98L70.36 15.98L70.36 15.55Q70.36 14.42 70.12 13.66Q69.88 12.90 69.37 12.52Q68.86 12.15 68.00 12.15L68.00 12.15Q67.28 12.15 66.79 12.44Q66.29 12.73 66.00 13.35Q65.71 13.96 65.57 14.94Q65.44 15.93 65.44 17.29L65.44 17.29L65.44 18.81Q65.44 20.08 65.66 20.95Q65.88 21.82 66.32 22.36Q66.75 22.90 67.39 23.13Q68.02 23.36 68.86 23.36L68.86 23.36Q70.12 23.36 71.14 22.91Q72.15 22.45 72.87 21.67L72.87 21.67L74.79 24.57Q74.29 25.22 73.42 25.87Q72.55 26.52 71.33 26.93Q70.12 27.34 68.53 27.34ZM81.95 27L82.05 23.31L85.03 8.51L90.02 8.51L84.94 27L81.95 27ZM75.29 8.51L80.29 8.51L83.32 23.33L83.37 27L80.36 27L75.29 8.51ZM103.18 18.71L103.18 18.71L108.16 18.71Q108.05 21.51 107.03 23.44Q106.00 25.36 104.11 26.35Q102.23 27.34 99.56 27.34L99.56 27.34Q97.49 27.34 95.89 26.65Q94.28 25.96 93.15 24.61Q92.02 23.26 91.45 21.27Q90.88 19.28 90.88 16.68L90.88 16.68L90.88 12.46Q90.88 9.86 91.49 7.86Q92.09 5.86 93.23 4.50Q94.36 3.14 95.98 2.45Q97.59 1.76 99.63 1.76L99.63 1.76Q102.35 1.76 104.17 2.78Q106.00 3.81 107.00 5.77Q108.00 7.72 108.21 10.54L108.21 10.54L103.20 10.54Q103.17 8.77 102.82 7.75Q102.47 6.73 101.71 6.31Q100.96 5.89 99.63 5.89L99.63 5.89Q98.64 5.89 97.92 6.24Q97.20 6.59 96.74 7.36Q96.28 8.13 96.07 9.38Q95.85 10.63 95.85 12.42L95.85 12.42L95.85 16.68Q95.85 18.44 96.04 19.68Q96.23 20.92 96.64 21.70Q97.05 22.49 97.76 22.85Q98.47 23.21 99.56 23.21L99.56 23.21Q100.82 23.21 101.60 22.83Q102.38 22.45 102.76 21.48Q103.13 20.51 103.18 18.71ZM109.26 18.39L109.26 18.39L109.26 17.14Q109.26 14.97 109.78 13.29Q110.30 11.62 111.27 10.48Q112.25 9.35 113.62 8.76Q115.00 8.17 116.71 8.17L116.71 8.17Q118.43 8.17 119.81 8.76Q121.18 9.35 122.17 10.48Q123.15 11.62 123.68 13.29Q124.21 14.97 124.21 17.14L124.21 17.14L124.21 18.39Q124.21 20.54 123.68 22.21Q123.15 23.89 122.17 25.03Q121.18 26.18 119.82 26.76Q118.45 27.34 116.74 27.34L116.74 27.34Q115.03 27.34 113.66 26.76Q112.28 26.18 111.29 25.03Q110.30 23.89 109.78 22.21Q109.26 20.54 109.26 18.39ZM114.06 17.14L114.06 17.14L114.06 18.39Q114.06 19.67 114.23 20.61Q114.40 21.55 114.75 22.16Q115.10 22.78 115.60 23.07Q116.09 23.36 116.74 23.36L116.74 23.36Q117.39 23.36 117.90 23.07Q118.42 22.78 118.75 22.16Q119.08 21.55 119.24 20.61Q119.41 19.67 119.41 18.39L119.41 18.39L119.41 17.14Q119.41 15.89 119.22 14.94Q119.03 13.99 118.69 13.39Q118.35 12.78 117.84 12.47Q117.34 12.15 116.71 12.15L116.71 12.15Q116.07 12.15 115.59 12.47Q115.10 12.78 114.75 13.39Q114.40 13.99 114.23 14.94Q114.06 15.89 114.06 17.14ZM135.41 27.02L134.95 22.92L134.95 0.75L139.75 0.75L139.75 27L135.41 27.02ZM125.36 18.40L125.36 18.40L125.36 17.17Q125.36 14.92 125.74 13.23Q126.13 11.53 126.90 10.41Q127.67 9.28 128.79 8.72Q129.91 8.17 131.36 8.17L131.36 8.17Q132.67 8.17 133.67 8.82Q134.67 9.48 135.37 10.66Q136.07 11.84 136.50 13.45Q136.93 15.05 137.10 16.97L137.10 16.97L137.10 18.75Q136.90 20.56 136.48 22.13Q136.06 23.70 135.35 24.86Q134.64 26.03 133.65 26.68Q132.66 27.34 131.34 27.34L131.34 27.34Q129.89 27.34 128.77 26.76Q127.65 26.18 126.89 25.04Q126.13 23.91 125.74 22.24Q125.36 20.57 125.36 18.40ZM130.14 17.17L130.14 17.17L130.14 18.40Q130.14 19.69 130.27 20.63Q130.40 21.57 130.70 22.16Q131.00 22.74 131.49 23.03Q131.99 23.31 132.73 23.31L132.73 23.31Q133.68 23.31 134.28 22.82Q134.88 22.33 135.18 21.47Q135.48 20.61 135.51 19.48L135.51 19.48L135.51 16.25Q135.48 15.31 135.29 14.56Q135.10 13.81 134.76 13.28Q134.42 12.75 133.91 12.46Q133.41 12.17 132.74 12.17L132.74 12.17Q132.02 12.17 131.52 12.46Q131.02 12.75 130.73 13.35Q130.44 13.96 130.29 14.92Q130.14 15.87 130.14 17.17ZM149.56 27.34L149.56 27.34Q147.67 27.34 146.21 26.76Q144.74 26.18 143.74 25.08Q142.73 23.98 142.20 22.40Q141.67 20.83 141.67 18.81L141.67 18.81L141.67 17.29Q141.67 15.04 142.18 13.34Q142.69 11.64 143.63 10.47Q144.57 9.31 145.95 8.74Q147.33 8.17 149.07 8.17L149.07 8.17Q150.81 8.17 152.14 8.74Q153.46 9.31 154.33 10.45Q155.20 11.58 155.65 13.26Q156.09 14.93 156.09 17.16L156.09 17.16L156.09 19.34L143.70 19.34L143.70 15.98L151.39 15.98L151.39 15.55Q151.39 14.42 151.15 13.66Q150.91 12.90 150.40 12.52Q149.89 12.15 149.03 12.15L149.03 12.15Q148.32 12.15 147.82 12.44Q147.33 12.73 147.03 13.35Q146.74 13.96 146.61 14.94Q146.47 15.93 146.47 17.29L146.47 17.29L146.47 18.81Q146.47 20.08 146.69 20.95Q146.92 21.82 147.35 22.36Q147.79 22.90 148.42 23.13Q149.05 23.36 149.89 23.36L149.89 23.36Q151.15 23.36 152.17 22.91Q153.19 22.45 153.91 21.67L153.91 21.67L155.82 24.57Q155.32 25.22 154.45 25.87Q153.58 26.52 152.37 26.93Q151.15 27.34 149.56 27.34Z"/></g>
        
      </svg>
    