<svg width="853" height="206" viewBox="0 0 853 206" fill="none" xmlns="http://www.w3.org/2000/svg">
<path d="M481.608 126.632C481.608 121.597 482.504 116.904 484.296 112.552C486.088 108.115 488.563 104.232 491.72 100.904C494.963 97.4907 498.632 94.8453 502.728 92.968C506.909 91.0053 511.347 90.024 516.04 90.024C521.245 90.024 525.768 91.2187 529.608 93.608C533.533 95.912 536.605 99.1547 538.824 103.336C541.043 107.517 542.152 112.381 542.152 117.928C542.152 122.963 541.256 127.699 539.464 132.136C537.672 136.488 535.155 140.371 531.912 143.784C528.755 147.112 525.085 149.757 520.904 151.72C516.808 153.597 512.413 154.536 507.72 154.536C502.6 154.536 498.077 153.384 494.152 151.08C490.227 148.691 487.155 145.405 484.936 141.224C482.717 136.957 481.608 132.093 481.608 126.632ZM487.24 126.632C487.24 133.629 489.16 139.176 493 143.272C496.84 147.368 502.003 149.416 508.488 149.416C513.608 149.416 518.301 148.008 522.568 145.192C526.835 142.291 530.205 138.451 532.68 133.672C535.24 128.893 536.52 123.645 536.52 117.928C536.52 110.845 534.6 105.299 530.76 101.288C527.005 97.192 521.843 95.144 515.272 95.144C510.152 95.144 505.459 96.5947 501.192 99.496C497.011 102.312 493.64 106.109 491.08 110.888C488.52 115.581 487.24 120.829 487.24 126.632ZM575.55 154.536C570.771 154.536 566.547 153.427 562.878 151.208C559.294 148.904 556.478 145.789 554.43 141.864C552.382 137.853 551.358 133.245 551.358 128.04C551.358 120.872 552.809 114.429 555.71 108.712C558.611 102.909 562.537 98.344 567.486 95.016C572.435 91.688 577.982 90.024 584.126 90.024C589.673 90.024 594.323 91.3893 598.078 94.12C601.918 96.7653 604.478 100.52 605.758 105.384L612.798 60.584H618.302L603.71 153H598.974L600.382 139.56C597.395 144.595 593.811 148.349 589.63 150.824C585.534 153.299 580.841 154.536 575.55 154.536ZM576.062 149.416C581.267 149.416 585.918 147.965 590.014 145.064C594.11 142.077 597.353 138.067 599.742 133.032C602.217 127.912 603.454 122.195 603.454 115.88C603.454 109.224 601.79 104.104 598.462 100.52C595.134 96.936 590.313 95.144 583.998 95.144C578.878 95.144 574.27 96.5947 570.174 99.496C566.163 102.397 562.963 106.323 560.574 111.272C558.185 116.221 556.99 121.811 556.99 128.04C556.99 134.525 558.697 139.731 562.11 143.656C565.609 147.496 570.259 149.416 576.062 149.416ZM648.33 154.536C643.381 154.536 638.986 153.384 635.146 151.08C631.306 148.691 628.277 145.448 626.058 141.352C623.925 137.256 622.858 132.563 622.858 127.272C622.858 120.275 624.266 113.96 627.082 108.328C629.983 102.696 633.866 98.2587 638.73 95.016C643.594 91.688 649.055 90.024 655.114 90.024C660.575 90.024 665.183 91.304 668.938 93.864C672.778 96.3387 675.551 99.7093 677.258 103.976C679.05 108.243 679.519 113.021 678.666 118.312L678.026 122.28H626.442L627.338 117.672H673.034C674.143 110.845 672.991 105.384 669.578 101.288C666.165 97.192 661.343 95.144 655.114 95.144C650.165 95.144 645.642 96.5947 641.546 99.496C637.535 102.312 634.335 106.152 631.946 111.016C629.642 115.795 628.49 121.213 628.49 127.272C628.49 133.843 630.325 139.176 633.994 143.272C637.663 147.368 642.442 149.416 648.33 149.416C653.279 149.416 657.717 148.179 661.642 145.704C665.653 143.229 668.469 139.816 670.09 135.464H675.85C674.485 139.475 672.437 142.931 669.706 145.832C666.975 148.648 663.775 150.824 660.106 152.36C656.522 153.811 652.597 154.536 648.33 154.536Z" fill="#0D0D0D"/>
<line x1="85" y1="42" x2="669" y2="42" stroke="url(#paint0_linear_18_14)" stroke-width="2"/>
<path d="M120.993 136H115.489L125.217 74.56H129.569L128.801 86.848C131.702 82.24 135.073 78.784 138.913 76.48C142.753 74.176 147.148 73.024 152.097 73.024C156.876 73.024 160.844 74.0907 164.001 76.224C167.244 78.3573 169.548 81.344 170.913 85.184C172.364 88.9387 172.662 93.4187 171.809 98.624L165.921 136H160.417L166.177 99.776C167.372 92.6933 166.689 87.3173 164.129 83.648C161.569 79.9787 157.345 78.144 151.457 78.144C144.886 78.144 139.297 80.5333 134.689 85.312C130.166 90.0053 127.265 96.3627 125.985 104.384L120.993 136Z" fill="#0D0D0D"/>
<path d="M298.606 155.73C293.74 156.63 289.209 156.297 285.014 154.731C280.803 153.08 277.234 150.443 274.307 146.819C271.464 143.179 269.561 138.759 268.598 133.556C267.325 126.676 267.56 120.21 269.304 114.16C271.132 108.094 274.143 103.024 278.335 98.9505C282.512 94.7929 287.58 92.1629 293.537 91.0603C298.907 90.0665 303.671 90.4865 307.829 92.3205C312.055 94.0551 315.396 96.8648 317.851 100.75C320.389 104.619 321.72 109.232 321.844 114.59L321.937 118.608L271.214 127.995L271.256 123.301L316.189 114.986C316.038 108.071 313.911 102.911 309.81 99.5041C305.708 96.0976 300.594 94.9612 294.469 96.0948C289.602 96.9955 285.419 99.245 281.92 102.843C278.488 106.342 276.041 110.7 274.576 115.918C273.18 121.036 273.034 126.574 274.136 132.531C275.332 138.992 278.107 143.903 282.46 147.263C286.813 150.622 291.885 151.767 297.675 150.695C302.541 149.794 306.679 147.77 310.089 144.623C313.582 141.459 315.73 137.591 316.532 133.016L322.196 131.968C321.583 136.16 320.199 139.931 318.042 143.281C315.869 146.547 313.118 149.269 309.79 151.447C306.53 153.526 302.802 154.953 298.606 155.73ZM350.733 144.521L324.575 86.8784L330.112 85.8535L349.033 128.303C349.717 129.652 350.366 131.05 350.981 132.499C351.597 133.947 352.297 135.857 353.083 138.228C353.612 136.394 354.121 134.695 354.613 133.128C355.088 131.478 355.746 129.404 356.585 126.905L373.283 77.8639L379.199 76.7691L356.271 143.496L350.733 144.521Z" fill="#0D0D0D"/>
<path d="M427.672 155.408C420.333 155.408 413.891 153.744 408.344 150.416C402.883 147.003 398.616 142.267 395.544 136.208C392.472 130.149 390.936 123.109 390.936 115.088C390.936 107.408 392.088 100.325 394.392 93.84C396.781 87.2693 400.109 81.5947 404.376 76.816C408.643 71.952 413.635 68.1973 419.352 65.552C425.155 62.9067 431.469 61.584 438.296 61.584C444.525 61.584 450.115 62.8213 455.064 65.296C460.099 67.7707 464.152 71.184 467.224 75.536C470.296 79.888 472.045 84.8373 472.472 90.384H466.584C465.987 85.776 464.408 81.7227 461.848 78.224C459.288 74.7253 455.96 71.9947 451.864 70.032C447.853 68.0693 443.331 67.088 438.296 67.088C432.323 67.088 426.776 68.2827 421.656 70.672C416.621 73.0613 412.227 76.432 408.472 80.784C404.803 85.0507 401.944 90.128 399.896 96.016C397.848 101.819 396.824 108.176 396.824 115.088C396.824 122.085 398.061 128.187 400.536 133.392C403.096 138.597 406.68 142.651 411.288 145.552C415.981 148.368 421.485 149.776 427.8 149.776C435.565 149.776 442.179 147.984 447.64 144.4C453.187 140.816 457.667 135.355 461.08 128.016H467.608C463.768 137.061 458.477 143.888 451.736 148.496C445.08 153.104 437.059 155.408 427.672 155.408Z" fill="#0D0D0D"/>
<path d="M200.36 165H175.656L189.992 74.12H213.416C221.864 74.12 229.032 75.784 234.92 79.112C240.893 82.44 245.416 87.0053 248.488 92.808C251.645 98.5253 253.224 105.096 253.224 112.52C253.224 120.883 251.859 128.307 249.128 134.792C246.483 141.277 242.771 146.781 237.992 151.304C233.213 155.741 227.624 159.155 221.224 161.544C214.824 163.848 207.869 165 200.36 165ZM195.368 77.064L181.928 162.056L179.624 159.624H201.384C210.173 159.624 218.024 157.832 224.936 154.248C231.848 150.579 237.309 145.245 241.32 138.248C245.331 131.165 247.336 122.589 247.336 112.52C247.336 106.035 246.013 100.317 243.368 95.368C240.723 90.3333 236.797 86.408 231.592 83.592C226.472 80.776 220.2 79.368 212.776 79.368H192.296L195.368 77.064Z" fill="#0D0D0D"/>
<path d="M29.4 124.95C29.4 134.05 31.9 141.2 36.9 146.4C41.9 151.6 48.65 154.2 57.15 154.2C65.55 154.2 72.2 151.65 77.1 146.55C82 141.35 84.45 134.15 84.45 124.95V63H102.15V124.95C102.15 134.05 100.35 141.95 96.75 148.65C93.15 155.25 87.95 160.35 81.15 163.95C74.45 167.45 66.45 169.2 57.15 169.2C47.75 169.2 39.65 167.45 32.85 163.95C26.05 160.35 20.8 155.25 17.1 148.65C13.5 141.95 11.7 134.05 11.7 124.95V63H29.4V124.95Z" fill="#0D0D0D"/>
<path d="M714.371 76.4467L781.089 105.04C781.504 105.222 781.99 105.331 782.5 105.331C783.01 105.331 783.496 105.226 783.934 105.036L783.911 105.045L850.625 76.4515C851.911 75.8939 852.793 74.631 852.793 73.168C852.793 71.7049 851.911 70.442 850.648 69.8892L850.625 69.8797L783.911 41.2859C783.496 41.1049 783.01 41 782.5 41C781.99 41 781.504 41.1049 781.066 41.2955L781.089 41.2859L714.371 69.8797C713.089 70.442 712.207 71.7002 712.207 73.1632C712.207 74.6263 713.089 75.8891 714.347 76.442L714.371 76.4467ZM782.5 48.4582L840.145 73.1632L782.5 97.8682L724.855 73.1632L782.5 48.4582ZM850.625 108.005L831.562 99.8364C831.148 99.6553 830.661 99.5457 830.151 99.5457C828.179 99.5457 826.577 101.147 826.577 103.12C826.577 104.588 827.464 105.846 828.727 106.399L828.75 106.408L840.145 111.288L782.5 135.993L724.855 111.288L736.25 106.408C737.536 105.851 738.423 104.588 738.423 103.12C738.423 101.147 736.821 99.5457 734.849 99.5457C734.339 99.5457 733.853 99.6506 733.414 99.8459L733.438 99.8364L714.375 108.005C713.089 108.567 712.207 109.825 712.207 111.293C712.207 112.761 713.089 114.014 714.347 114.567L714.371 114.576L781.089 143.17C781.504 143.351 781.99 143.461 782.5 143.461C783.01 143.461 783.496 143.356 783.934 143.165L783.911 143.175L850.625 114.581C851.911 114.024 852.793 112.761 852.793 111.298C852.793 109.835 851.911 108.572 850.648 108.019L850.625 108.009V108.005ZM850.625 146.13L831.562 137.957C831.148 137.776 830.661 137.666 830.151 137.666C828.179 137.666 826.577 139.267 826.577 141.24C826.577 142.708 827.464 143.966 828.727 144.519L828.75 144.528L840.145 149.413L782.5 174.118L724.85 149.413L736.254 144.528C737.536 143.966 738.418 142.708 738.418 141.245C738.418 139.272 736.817 137.671 734.844 137.671C734.334 137.671 733.848 137.776 733.409 137.971L733.433 137.961L714.371 146.134C713.089 146.697 712.207 147.955 712.207 149.418C712.207 150.881 713.089 152.144 714.347 152.697L714.371 152.706L781.089 181.3C781.504 181.481 781.99 181.591 782.5 181.591C783.01 181.591 783.496 181.486 783.934 181.295L783.911 181.305L850.625 152.711C851.911 152.153 852.793 150.891 852.793 149.428C852.793 147.964 851.911 146.702 850.648 146.149L850.625 146.139V146.13Z" fill="url(#paint1_linear_18_14)"/>
<path d="M668.5 42H782.5" stroke="#FF0000" stroke-width="2"/>
<rect x="84.6" y="41" width="17.2" height="23" fill="url(#paint2_linear_18_14)"/>
<defs>
<linearGradient id="paint0_linear_18_14" x1="85" y1="43.5" x2="669" y2="43.5" gradientUnits="userSpaceOnUse">
<stop stop-color="#EAEAEA"/>
<stop offset="1" stop-color="#FF0000"/>
</linearGradient>
<linearGradient id="paint1_linear_18_14" x1="782.5" y1="41" x2="782.5" y2="181.591" gradientUnits="userSpaceOnUse">
<stop stop-color="#FF0000"/>
<stop offset="1" stop-color="#FF00C8"/>
</linearGradient>
<linearGradient id="paint2_linear_18_14" x1="93.2" y1="41" x2="93.2" y2="64" gradientUnits="userSpaceOnUse">
<stop stop-color="#EAEAEA"/>
<stop offset="1" stop-color="#0D0D0D"/>
</linearGradient>
</defs>
</svg>
