<svg width="866" height="232" viewBox="0 0 866 232" fill="none" xmlns="http://www.w3.org/2000/svg">
<path d="M12.3 144L23.4 74.55H37.35L26.4 144C25.1 152.4 26.45 159 30.45 163.8C34.55 168.6 40.8 171 49.2 171C57.5 171 64.2 168.7 69.3 164.1C74.5 159.4 77.8 152.7 79.2 144L90.15 74.55H104.25L93 144.75C91 157.45 86.15 167.3 78.45 174.3C70.85 181.3 60.75 184.8 48.15 184.8C40.15 184.8 33.2 183.1 27.3 179.7C21.5 176.2 17.25 171.4 14.55 165.3C11.85 159.1 11.1 152 12.3 144Z" fill="white"/>
<path d="M481.096 126.12C481.096 120.915 482.035 116.093 483.912 111.656C485.789 107.133 488.392 103.165 491.72 99.752C495.048 96.3387 498.888 93.6507 503.24 91.688C507.592 89.7253 512.285 88.744 517.32 88.744C523.037 88.744 528.029 89.9387 532.296 92.328C536.563 94.7173 539.891 98.0453 542.28 102.312C544.669 106.579 545.864 111.528 545.864 117.16C545.864 122.365 544.925 127.229 543.048 131.752C541.256 136.275 538.696 140.243 535.368 143.656C532.04 147.069 528.2 149.757 523.848 151.72C519.496 153.597 514.803 154.536 509.768 154.536C504.136 154.536 499.144 153.341 494.792 150.952C490.525 148.563 487.155 145.235 484.68 140.968C482.291 136.701 481.096 131.752 481.096 126.12ZM492.872 125.352C492.872 131.155 494.451 135.763 497.608 139.176C500.851 142.589 505.203 144.296 510.664 144.296C514.931 144.296 518.856 143.101 522.44 140.712C526.024 138.323 528.883 135.123 531.016 131.112C533.149 127.101 534.216 122.707 534.216 117.928C534.216 112.125 532.595 107.517 529.352 104.104C526.195 100.691 521.885 98.984 516.424 98.984C512.157 98.984 508.232 100.179 504.648 102.568C501.064 104.957 498.205 108.157 496.072 112.168C493.939 116.093 492.872 120.488 492.872 125.352ZM579.437 154.536C574.573 154.536 570.264 153.384 566.509 151.08C562.754 148.691 559.768 145.405 557.549 141.224C555.416 137.043 554.349 132.221 554.349 126.76C554.349 119.421 555.8 112.893 558.701 107.176C561.602 101.459 565.528 96.9787 570.477 93.736C575.512 90.408 581.186 88.744 587.501 88.744C592.536 88.744 596.93 89.9387 600.685 92.328C604.525 94.632 607.17 97.7893 608.621 101.8L615.277 58.792H626.797L611.949 153H601.453L602.221 141.864C599.576 146.045 596.333 149.203 592.493 151.336C588.738 153.469 584.386 154.536 579.437 154.536ZM582.509 144.296C586.861 144.296 590.786 143.101 594.285 140.712C597.784 138.237 600.557 134.909 602.605 130.728C604.653 126.547 605.677 121.896 605.677 116.776C605.677 111.229 604.226 106.877 601.325 103.72C598.424 100.563 594.285 98.984 588.909 98.984C584.642 98.984 580.76 100.179 577.261 102.568C573.848 104.957 571.117 108.2 569.069 112.296C567.021 116.392 565.997 121 565.997 126.12C565.997 131.667 567.49 136.104 570.477 139.432C573.464 142.675 577.474 144.296 582.509 144.296ZM657.116 154.536C651.569 154.536 646.705 153.384 642.524 151.08C638.428 148.776 635.228 145.533 632.924 141.352C630.705 137.171 629.596 132.264 629.596 126.632C629.596 119.464 631.089 113.021 634.076 107.304C637.148 101.587 641.244 97.064 646.364 93.736C651.569 90.408 657.372 88.744 663.772 88.744C669.745 88.744 674.78 90.0667 678.876 92.712C682.972 95.3573 685.916 98.984 687.708 103.592C689.585 108.2 690.055 113.491 689.116 119.464L688.476 123.816L635.74 123.944L637.148 116.136H678.108C678.961 110.76 677.98 106.493 675.164 103.336C672.433 100.093 668.465 98.472 663.26 98.472C659.079 98.472 655.281 99.7093 651.868 102.184C648.455 104.573 645.767 107.859 643.804 112.04C641.841 116.136 640.86 120.787 640.86 125.992C640.86 131.88 642.311 136.488 645.212 139.816C648.199 143.144 652.295 144.808 657.5 144.808C661.596 144.808 665.265 143.827 668.508 141.864C671.751 139.901 674.055 137.171 675.42 133.672H686.94C685.489 137.939 683.271 141.651 680.284 144.808C677.383 147.965 673.927 150.397 669.916 152.104C665.991 153.725 661.724 154.536 657.116 154.536Z" fill="white"/>
<path d="M125.857 136H114.337L124.321 73.408H134.561L134.305 83.392C137.121 79.3813 140.193 76.4373 143.521 74.56C146.934 72.5973 150.902 71.616 155.425 71.616C160.204 71.616 164.257 72.768 167.585 75.072C170.913 77.2907 173.345 80.3627 174.881 84.288C176.417 88.2133 176.758 92.6933 175.905 97.728L169.889 136H158.369L164.001 100.416C165.025 94.528 164.428 90.0053 162.209 86.848C159.99 83.6907 156.406 82.112 151.457 82.112C146.166 82.112 141.686 83.9893 138.017 87.744C134.433 91.4133 132.129 96.4907 131.105 102.976L125.857 136Z" fill="white"/>
<path d="M296.874 153.337C291.348 153.819 286.402 153.094 282.037 151.162C277.756 149.223 274.286 146.271 271.627 142.306C269.054 138.333 267.522 133.542 267.032 127.931C266.409 120.79 267.337 114.242 269.815 108.287C272.378 102.324 276.066 97.4623 280.877 93.7018C285.773 89.9338 291.409 87.7717 297.785 87.2153C303.736 86.6961 308.867 87.576 313.177 89.8553C317.487 92.1345 320.736 95.4915 322.921 99.9263C325.192 104.354 326.12 109.583 325.704 115.616L325.445 120.007L272.919 124.719L273.643 116.818L314.448 113.257C314.831 107.828 313.482 103.662 310.403 100.762C307.4 97.7687 303.306 96.4985 298.121 96.951C293.955 97.3145 290.28 98.8773 287.095 101.639C283.902 104.316 281.51 107.823 279.918 112.159C278.319 116.41 277.746 121.129 278.198 126.314C278.71 132.18 280.556 136.644 283.735 139.707C287 142.763 291.225 144.065 296.411 143.612C300.491 143.256 304.061 141.96 307.121 139.723C310.181 137.485 312.239 134.565 313.295 130.961L324.771 129.959C323.697 134.336 321.809 138.227 319.109 141.632C316.493 145.029 313.261 147.752 309.414 149.801C305.644 151.758 301.464 152.936 296.874 153.337ZM350.655 147.102L330.422 86.0376L342.026 85.025L353.026 119.784C353.751 122.205 354.426 124.545 355.051 126.803C355.677 129.061 356.321 131.532 356.983 134.215C357.888 131.823 358.785 129.347 359.675 126.785C360.65 124.216 361.707 121.597 362.844 118.928L379.261 81.7758L391.885 80.6742L362.004 146.112L350.655 147.102Z" fill="white"/>
<path d="M429.08 155.408C421.144 155.408 414.275 153.701 408.472 150.288C402.755 146.875 398.317 142.096 395.16 135.952C392.003 129.723 390.424 122.597 390.424 114.576C390.424 106.64 391.661 99.344 394.136 92.688C396.611 86.032 400.067 80.272 404.504 75.408C408.941 70.4587 414.147 66.6613 420.12 64.016C426.179 61.2853 432.749 59.92 439.832 59.92C446.829 59.92 452.973 61.2427 458.264 63.888C463.555 66.5333 467.736 70.2453 470.808 75.024C473.88 79.7173 475.587 85.136 475.928 91.28H463.256C462.659 87.184 461.251 83.6853 459.032 80.784C456.813 77.7973 453.955 75.536 450.456 74C447.043 72.3787 443.16 71.568 438.808 71.568C433.517 71.568 428.696 72.6347 424.344 74.768C419.992 76.9013 416.195 79.888 412.952 83.728C409.795 87.4827 407.363 91.9627 405.656 97.168C403.949 102.288 403.096 107.92 403.096 114.064C403.096 119.952 404.163 125.157 406.296 129.68C408.429 134.117 411.459 137.573 415.384 140.048C419.395 142.437 424.088 143.632 429.464 143.632C436.376 143.632 442.221 142.139 447 139.152C451.864 136.08 455.704 131.259 458.52 124.688H471.832C468.077 134.843 462.573 142.523 455.32 147.728C448.152 152.848 439.405 155.408 429.08 155.408Z" fill="white"/>
<path d="M204.584 165H174.888L189.48 72.456H217.384C225.576 72.456 232.659 74.2053 238.632 77.704C244.605 81.2027 249.256 86.024 252.584 92.168C255.912 98.2267 257.576 105.181 257.576 113.032C257.576 121.053 256.253 128.264 253.608 134.664C250.963 140.979 247.251 146.44 242.472 151.048C237.779 155.571 232.189 159.027 225.704 161.416C219.304 163.805 212.264 165 204.584 165ZM200.616 78.088L187.816 159.368L182.952 153.736H205.608C213.288 153.736 220.072 152.157 225.96 149C231.848 145.757 236.456 141.107 239.784 135.048C243.197 128.904 244.904 121.565 244.904 113.032C244.904 107.144 243.752 102.024 241.448 97.672C239.144 93.2347 235.773 89.7787 231.336 87.304C226.899 84.8293 221.608 83.592 215.464 83.592H194.088L200.616 78.088Z" fill="white"/>
<path d="M713.17 78.0542L780.085 107.138C780.501 107.322 780.989 107.434 781.5 107.434C782.011 107.434 782.499 107.327 782.939 107.133L782.915 107.143L849.825 78.059C851.116 77.4919 852 76.2074 852 74.7192C852 73.2311 851.116 71.9466 849.849 71.3843L849.825 71.3746L782.915 42.2908C782.499 42.1066 782.011 42 781.5 42C780.989 42 780.501 42.1066 780.061 42.3005L780.085 42.2908L713.17 71.3746C711.884 71.9466 711 73.2263 711 74.7144C711 76.2025 711.884 77.487 713.146 78.0493L713.17 78.0542ZM781.5 49.586L839.315 74.7144L781.5 99.8428L723.685 74.7144L781.5 49.586ZM849.825 110.153L830.707 101.845C830.291 101.66 829.803 101.549 829.292 101.549C827.313 101.549 825.707 103.178 825.707 105.184C825.707 106.677 826.596 107.957 827.863 108.519L827.887 108.529L839.315 113.493L781.5 138.621L723.685 113.493L735.113 108.529C736.404 107.962 737.293 106.677 737.293 105.184C737.293 103.178 735.687 101.549 733.708 101.549C733.197 101.549 732.709 101.656 732.269 101.854L732.293 101.845L713.175 110.153C711.884 110.725 711 112.005 711 113.498C711 114.991 711.884 116.265 713.146 116.828L713.17 116.837L780.085 145.921C780.501 146.105 780.989 146.217 781.5 146.217C782.011 146.217 782.499 146.11 782.939 145.916L782.915 145.926L849.825 116.842C851.116 116.275 852 114.991 852 113.502C852 112.014 851.116 110.73 849.849 110.167L849.825 110.158V110.153ZM849.825 148.931L830.707 140.618C830.291 140.434 829.803 140.323 829.292 140.323C827.313 140.323 825.707 141.951 825.707 143.958C825.707 145.451 826.596 146.731 827.863 147.293L827.887 147.303L839.315 152.271L781.5 177.399L723.68 152.271L735.118 147.303C736.404 146.731 737.288 145.451 737.288 143.963C737.288 141.956 735.682 140.327 733.703 140.327C733.192 140.327 732.704 140.434 732.265 140.633L732.289 140.623L713.17 148.936C711.884 149.508 711 150.788 711 152.276C711 153.764 711.884 155.049 713.146 155.611L713.17 155.621L780.085 184.704C780.501 184.889 780.989 185 781.5 185C782.011 185 782.499 184.893 782.939 184.699L782.915 184.709L849.825 155.625C851.116 155.058 852 153.774 852 152.286C852 150.798 851.116 149.513 849.849 148.951L849.825 148.941V148.931Z" fill="url(#paint0_linear_22_30)"/>
<line x1="96" y1="44.5" x2="668" y2="44.5" stroke="url(#paint1_linear_22_30)" stroke-width="5"/>
<path d="M667.5 44.5H781.5" stroke="white" stroke-width="5"/>
<rect x="95.2025" y="42.0292" width="13.9132" height="32.8803" transform="rotate(9.01235 95.2025 42.0292)" fill="url(#paint2_linear_22_30)"/>
<defs>
<linearGradient id="paint0_linear_22_30" x1="781.5" y1="42" x2="781.5" y2="185" gradientUnits="userSpaceOnUse">
<stop stop-color="white"/>
<stop offset="1" stop-color="white"/>
</linearGradient>
<linearGradient id="paint1_linear_22_30" x1="96" y1="47.5" x2="668" y2="47.5" gradientUnits="userSpaceOnUse">
<stop stop-color="white"/>
<stop offset="1" stop-color="white"/>
</linearGradient>
<linearGradient id="paint2_linear_22_30" x1="102.159" y1="42.0292" x2="102.159" y2="74.9094" gradientUnits="userSpaceOnUse">
<stop stop-color="white"/>
<stop offset="1" stop-color="white"/>
</linearGradient>
</defs>
</svg>
