<svg width="865" height="216" viewBox="0 0 865 216" fill="none" xmlns="http://www.w3.org/2000/svg">
<path d="M12.3 144L23.4 74.55H37.35L26.4 144C25.1 152.4 26.45 159 30.45 163.8C34.55 168.6 40.8 171 49.2 171C57.5 171 64.2 168.7 69.3 164.1C74.5 159.4 77.8 152.7 79.2 144L90.15 74.55H104.25L93 144.75C91 157.45 86.15 167.3 78.45 174.3C70.85 181.3 60.75 184.8 48.15 184.8C40.15 184.8 33.2 183.1 27.3 179.7C21.5 176.2 17.25 171.4 14.55 165.3C11.85 159.1 11.1 152 12.3 144Z" fill="#0D0D0D"/>
<path d="M481.096 126.12C481.096 120.915 482.035 116.093 483.912 111.656C485.789 107.133 488.392 103.165 491.72 99.752C495.048 96.3387 498.888 93.6507 503.24 91.688C507.592 89.7253 512.285 88.744 517.32 88.744C523.037 88.744 528.029 89.9387 532.296 92.328C536.563 94.7173 539.891 98.0453 542.28 102.312C544.669 106.579 545.864 111.528 545.864 117.16C545.864 122.365 544.925 127.229 543.048 131.752C541.256 136.275 538.696 140.243 535.368 143.656C532.04 147.069 528.2 149.757 523.848 151.72C519.496 153.597 514.803 154.536 509.768 154.536C504.136 154.536 499.144 153.341 494.792 150.952C490.525 148.563 487.155 145.235 484.68 140.968C482.291 136.701 481.096 131.752 481.096 126.12ZM492.872 125.352C492.872 131.155 494.451 135.763 497.608 139.176C500.851 142.589 505.203 144.296 510.664 144.296C514.931 144.296 518.856 143.101 522.44 140.712C526.024 138.323 528.883 135.123 531.016 131.112C533.149 127.101 534.216 122.707 534.216 117.928C534.216 112.125 532.595 107.517 529.352 104.104C526.195 100.691 521.885 98.984 516.424 98.984C512.157 98.984 508.232 100.179 504.648 102.568C501.064 104.957 498.205 108.157 496.072 112.168C493.939 116.093 492.872 120.488 492.872 125.352ZM579.437 154.536C574.573 154.536 570.264 153.384 566.509 151.08C562.754 148.691 559.768 145.405 557.549 141.224C555.416 137.043 554.349 132.221 554.349 126.76C554.349 119.421 555.8 112.893 558.701 107.176C561.602 101.459 565.528 96.9787 570.477 93.736C575.512 90.408 581.186 88.744 587.501 88.744C592.536 88.744 596.93 89.9387 600.685 92.328C604.525 94.632 607.17 97.7893 608.621 101.8L615.277 58.792H626.797L611.949 153H601.453L602.221 141.864C599.576 146.045 596.333 149.203 592.493 151.336C588.738 153.469 584.386 154.536 579.437 154.536ZM582.509 144.296C586.861 144.296 590.786 143.101 594.285 140.712C597.784 138.237 600.557 134.909 602.605 130.728C604.653 126.547 605.677 121.896 605.677 116.776C605.677 111.229 604.226 106.877 601.325 103.72C598.424 100.563 594.285 98.984 588.909 98.984C584.642 98.984 580.76 100.179 577.261 102.568C573.848 104.957 571.117 108.2 569.069 112.296C567.021 116.392 565.997 121 565.997 126.12C565.997 131.667 567.49 136.104 570.477 139.432C573.464 142.675 577.474 144.296 582.509 144.296ZM657.116 154.536C651.569 154.536 646.705 153.384 642.524 151.08C638.428 148.776 635.228 145.533 632.924 141.352C630.705 137.171 629.596 132.264 629.596 126.632C629.596 119.464 631.089 113.021 634.076 107.304C637.148 101.587 641.244 97.064 646.364 93.736C651.569 90.408 657.372 88.744 663.772 88.744C669.745 88.744 674.78 90.0667 678.876 92.712C682.972 95.3573 685.916 98.984 687.708 103.592C689.585 108.2 690.055 113.491 689.116 119.464L688.476 123.816L635.74 123.944L637.148 116.136H678.108C678.961 110.76 677.98 106.493 675.164 103.336C672.433 100.093 668.465 98.472 663.26 98.472C659.079 98.472 655.281 99.7093 651.868 102.184C648.455 104.573 645.767 107.859 643.804 112.04C641.841 116.136 640.86 120.787 640.86 125.992C640.86 131.88 642.311 136.488 645.212 139.816C648.199 143.144 652.295 144.808 657.5 144.808C661.596 144.808 665.265 143.827 668.508 141.864C671.751 139.901 674.055 137.171 675.42 133.672H686.94C685.489 137.939 683.271 141.651 680.284 144.808C677.383 147.965 673.927 150.397 669.916 152.104C665.991 153.725 661.724 154.536 657.116 154.536Z" fill="#0D0D0D"/>
<path d="M125.857 136H114.337L124.321 73.408H134.561L134.305 83.392C137.121 79.3813 140.193 76.4373 143.521 74.56C146.934 72.5973 150.902 71.616 155.425 71.616C160.204 71.616 164.257 72.768 167.585 75.072C170.913 77.2907 173.345 80.3627 174.881 84.288C176.417 88.2133 176.758 92.6933 175.905 97.728L169.889 136H158.369L164.001 100.416C165.025 94.528 164.428 90.0053 162.209 86.848C159.99 83.6907 156.406 82.112 151.457 82.112C146.166 82.112 141.686 83.9893 138.017 87.744C134.433 91.4133 132.129 96.4907 131.105 102.976L125.857 136Z" fill="#0D0D0D"/>
<path d="M294.56 151.898C289.018 152.14 284.109 151.201 279.831 149.082C275.638 146.959 272.3 143.859 269.816 139.782C267.417 135.701 266.094 130.848 265.849 125.221C265.536 118.06 266.747 111.558 269.481 105.716C272.301 99.8703 276.196 95.1733 281.166 91.6251C286.221 88.0732 291.946 86.1577 298.34 85.8785C304.307 85.618 309.395 86.7198 313.602 89.1839C317.81 91.6481 320.909 95.1429 322.9 99.6683C324.977 104.19 325.677 109.455 324.999 115.464L324.55 119.84L271.87 122.268L272.936 114.406L313.857 112.619C314.475 107.211 313.308 102.991 310.357 99.9597C307.488 96.8393 303.453 95.3926 298.252 95.6196C294.075 95.802 290.335 97.2038 287.033 99.825C283.727 102.361 281.185 105.76 279.407 110.023C277.625 114.201 276.847 118.89 277.074 124.091C277.331 129.973 278.981 134.513 282.025 137.712C285.154 140.906 289.319 142.39 294.519 142.163C298.611 141.984 302.234 140.844 305.388 138.741C308.542 136.639 310.725 133.811 311.936 130.256L323.445 129.753C322.182 134.079 320.127 137.884 317.281 141.169C314.521 144.45 311.174 147.03 307.241 148.91C303.391 150.701 299.163 151.697 294.56 151.898ZM348.561 148.003L330.997 86.1183L342.634 85.6102L352.115 120.814C352.734 123.264 353.307 125.631 353.834 127.914C354.361 130.197 354.897 132.693 355.442 135.403C356.45 133.053 357.454 130.617 358.454 128.097C359.54 125.572 360.709 123.001 361.961 120.384L379.974 83.9799L392.634 83.4271L359.942 147.506L348.561 148.003Z" fill="#0D0D0D"/>
<path d="M429.08 155.408C421.144 155.408 414.275 153.701 408.472 150.288C402.755 146.875 398.317 142.096 395.16 135.952C392.003 129.723 390.424 122.597 390.424 114.576C390.424 106.64 391.661 99.344 394.136 92.688C396.611 86.032 400.067 80.272 404.504 75.408C408.941 70.4587 414.147 66.6613 420.12 64.016C426.179 61.2853 432.749 59.92 439.832 59.92C446.829 59.92 452.973 61.2427 458.264 63.888C463.555 66.5333 467.736 70.2453 470.808 75.024C473.88 79.7173 475.587 85.136 475.928 91.28H463.256C462.659 87.184 461.251 83.6853 459.032 80.784C456.813 77.7973 453.955 75.536 450.456 74C447.043 72.3787 443.16 71.568 438.808 71.568C433.517 71.568 428.696 72.6347 424.344 74.768C419.992 76.9013 416.195 79.888 412.952 83.728C409.795 87.4827 407.363 91.9627 405.656 97.168C403.949 102.288 403.096 107.92 403.096 114.064C403.096 119.952 404.163 125.157 406.296 129.68C408.429 134.117 411.459 137.573 415.384 140.048C419.395 142.437 424.088 143.632 429.464 143.632C436.376 143.632 442.221 142.139 447 139.152C451.864 136.08 455.704 131.259 458.52 124.688H471.832C468.077 134.843 462.573 142.523 455.32 147.728C448.152 152.848 439.405 155.408 429.08 155.408Z" fill="#0D0D0D"/>
<path d="M204.584 165H174.888L189.48 72.456H217.384C225.576 72.456 232.659 74.2053 238.632 77.704C244.605 81.2027 249.256 86.024 252.584 92.168C255.912 98.2267 257.576 105.181 257.576 113.032C257.576 121.053 256.253 128.264 253.608 134.664C250.963 140.979 247.251 146.44 242.472 151.048C237.779 155.571 232.189 159.027 225.704 161.416C219.304 163.805 212.264 165 204.584 165ZM200.616 78.088L187.816 159.368L182.952 153.736H205.608C213.288 153.736 220.072 152.157 225.96 149C231.848 145.757 236.456 141.107 239.784 135.048C243.197 128.904 244.904 121.565 244.904 113.032C244.904 107.144 243.752 102.024 241.448 97.672C239.144 93.2347 235.773 89.7787 231.336 87.304C226.899 84.8293 221.608 83.592 215.464 83.592H194.088L200.616 78.088Z" fill="#0D0D0D"/>
<path d="M713.371 77.4467L780.089 106.04C780.504 106.222 780.99 106.331 781.5 106.331C782.01 106.331 782.496 106.226 782.934 106.036L782.911 106.045L849.625 77.4515C850.911 76.8939 851.793 75.631 851.793 74.168C851.793 72.7049 850.911 71.442 849.648 70.8892L849.625 70.8797L782.911 42.2859C782.496 42.1049 782.01 42 781.5 42C780.99 42 780.504 42.1049 780.066 42.2955L780.089 42.2859L713.371 70.8797C712.089 71.442 711.207 72.7002 711.207 74.1632C711.207 75.6263 712.089 76.8891 713.347 77.442L713.371 77.4467ZM781.5 49.4582L839.145 74.1632L781.5 98.8682L723.855 74.1632L781.5 49.4582ZM849.625 109.005L830.562 100.836C830.148 100.655 829.661 100.546 829.151 100.546C827.179 100.546 825.577 102.147 825.577 104.12C825.577 105.588 826.464 106.846 827.727 107.399L827.75 107.408L839.145 112.288L781.5 136.993L723.855 112.288L735.25 107.408C736.536 106.851 737.423 105.588 737.423 104.12C737.423 102.147 735.821 100.546 733.849 100.546C733.339 100.546 732.853 100.651 732.414 100.846L732.438 100.836L713.375 109.005C712.089 109.567 711.207 110.825 711.207 112.293C711.207 113.761 712.089 115.014 713.347 115.567L713.371 115.576L780.089 144.17C780.504 144.351 780.99 144.461 781.5 144.461C782.01 144.461 782.496 144.356 782.934 144.165L782.911 144.175L849.625 115.581C850.911 115.024 851.793 113.761 851.793 112.298C851.793 110.835 850.911 109.572 849.648 109.019L849.625 109.009V109.005ZM849.625 147.13L830.562 138.957C830.148 138.776 829.661 138.666 829.151 138.666C827.179 138.666 825.577 140.267 825.577 142.24C825.577 143.708 826.464 144.966 827.727 145.519L827.75 145.528L839.145 150.413L781.5 175.118L723.85 150.413L735.254 145.528C736.536 144.966 737.418 143.708 737.418 142.245C737.418 140.272 735.817 138.671 733.844 138.671C733.334 138.671 732.848 138.776 732.409 138.971L732.433 138.961L713.371 147.134C712.089 147.697 711.207 148.955 711.207 150.418C711.207 151.881 712.089 153.144 713.347 153.697L713.371 153.706L780.089 182.3C780.504 182.481 780.99 182.591 781.5 182.591C782.01 182.591 782.496 182.486 782.934 182.295L782.911 182.305L849.625 153.711C850.911 153.153 851.793 151.891 851.793 150.428C851.793 148.964 850.911 147.702 849.648 147.149L849.625 147.139V147.13Z" fill="url(#paint0_linear_22_35)"/>
<line x1="96" y1="44.5" x2="668" y2="44.5" stroke="url(#paint1_linear_22_35)" stroke-width="5"/>
<path d="M667.5 44.5H781.5" stroke="#FF0000" stroke-width="5"/>
<rect x="95.2025" y="42.0292" width="13.9132" height="32.8803" transform="rotate(9.01235 95.2025 42.0292)" fill="url(#paint2_linear_22_35)"/>
<defs>
<linearGradient id="paint0_linear_22_35" x1="781.5" y1="42" x2="781.5" y2="182.591" gradientUnits="userSpaceOnUse">
<stop stop-color="#FF0000"/>
<stop offset="1" stop-color="#FF00C8"/>
</linearGradient>
<linearGradient id="paint1_linear_22_35" x1="96" y1="47.5" x2="668" y2="47.5" gradientUnits="userSpaceOnUse">
<stop stop-color="#EAEAEA"/>
<stop offset="1" stop-color="#FF0000"/>
</linearGradient>
<linearGradient id="paint2_linear_22_35" x1="102.159" y1="42.0292" x2="102.159" y2="74.9094" gradientUnits="userSpaceOnUse">
<stop stop-color="#EAEAEA"/>
<stop offset="1" stop-color="#0D0D0D"/>
</linearGradient>
</defs>
</svg>
